<svg xmlns="http://www.w3.org/2000/svg" viewBox="0 0 400 250" preserveAspectRatio="none">
<polygon points="0,0 80,0 0,83.33" fill="#E3EEF3"/>
<polygon points="80,0 95,70 0,83.33" fill="#C6DAE4"/>
<polygon points="80,0 160,0 150,90" fill="#C6DAE4"/>
<polygon points="80,0 150,90 95,70" fill="#F4F9FB"/>
<polygon points="160,0 240,0 150,90" fill="#C6DAE4"/>
<polygon points="240,0 255,75 150,90" fill="#A3BFCC"/>
<polygon points="240,0 320,0 308,95" fill="#7C9BAC"/>
<polygon points="240,0 308,95 255,75" fill="#3E5A6D"/>
<polygon points="320,0 400,0 308,95" fill="#7C9BAC"/>
<polygon points="400,0 400,83.33 308,95" fill="#5A7A8E"/>
<polygon points="0,83.33 95,70 70,150" fill="#C6DAE4"/>
<polygon points="0,83.33 70,150 0,166.67" fill="#F4F9FB"/>
<polygon points="95,70 150,90 70,150" fill="#A3BFCC"/>
<polygon points="150,90 170,180 70,150" fill="#5A7A8E"/>
<polygon points="150,90 255,75 230,155" fill="#7C9BAC"/>
<polygon points="150,90 230,155 170,180" fill="#7C9BAC"/>
<polygon points="255,75 308,95 230,155" fill="#7C9BAC"/>
<polygon points="308,95 330,175 230,155" fill="#5A7A8E"/>
<polygon points="308,95 400,83.33 400,166.67" fill="#3E5A6D"/>
<polygon points="308,95 400,166.67 330,175" fill="#1E2C38"/>
<polygon points="0,166.67 70,150 0,250" fill="#A3BFCC"/>
<polygon points="70,150 80,250 0,250" fill="#7C9BAC"/>
<polygon points="70,150 170,180 160,250" fill="#7C9BAC"/>
<polygon points="70,150 160,250 80,250" fill="#C6DAE4"/>
<polygon points="170,180 230,155 160,250" fill="#5A7A8E"/>
<polygon points="230,155 240,250 160,250" fill="#2C4051"/>
<polygon points="230,155 330,175 320,250" fill="#3E5A6D"/>
<polygon points="230,155 320,250 240,250" fill="#3E5A6D"/>
<polygon points="330,175 400,166.67 320,250" fill="#2C4051"/>
<polygon points="400,166.67 400,250 320,250" fill="#1E2C38"/>
</svg>
